<svg class="pictogram-svg blackboard-svg" version="1.1" xmlns="http://www.w3.org/2000/svg" xmlns:xlink="http://www.w3.org/1999/xlink" x="0px" y="0px" width="128px" height="128px" viewBox="0 0 512 512" enable-background="new 0 0 512 512" xml:space="preserve" id="yui_patched_v3_11_0_1_1506117731794_868"> <circle cx="256" cy="256" r="179.5" fill="#514f4f" id="yui_patched_v3_11_0_1_1506117731794_867"></circle> <path fill="rgba(255, 255, 255, 1)" d="M147.251,183.696h55.706c11.065,0,19.078,0.382,24.801,1.526c5.342,1.145,10.302,3.051,14.5,6.105 c4.196,3.051,8.013,7.249,10.682,12.209c2.672,4.959,4.198,10.684,4.198,16.788c0,6.868-1.908,12.974-5.342,18.695 c-3.435,5.723-8.394,9.92-14.117,12.592c8.393,2.67,14.88,6.866,19.459,12.973c4.579,6.104,6.868,13.354,6.868,21.747 c0,6.486-1.526,12.974-4.58,19.078c-3.051,6.105-6.867,11.065-12.209,14.882c-4.959,3.814-11.446,6.104-18.695,6.866 c-4.58,0.384-16.026,0.763-33.958,1.146h-47.312V183.696z M172.052,207.734l-0.382,35.482h21.748c4.197,0,8.396,0,12.592,0 c4.578,0,8.776,0,13.354-1.906c3.814-1.526,7.631-4.58,9.538-8.394c1.526-2.671,2.29-5.723,2.29-8.777 c0-3.814-1.909-7.248-4.197-9.918c-3.053-3.435-7.249-5.343-11.446-5.725c-2.671-0.381-10.685-0.381-24.039-0.381 L172.052,207.734z M171.289,265.729l0.382,37.774h28.998c6.486,0,12.972,0,19.84,0c6.869-1.146,9.539-1.909,13.737-6.104 c1.907-1.909,4.959-6.105,5.341-11.829c0-4.577-1.145-6.486-2.29-9.156c-1.145-1.907-2.29-3.435-3.815-4.962 c-3.816-3.814-10.303-5.723-15.263-5.723c-6.486-0.38-13.354,0-19.841,0H171.289z"></path> <path fill="rgba(255, 255, 255, 1)" d="M272.401,326.396V183.696h24.799v52.272c8.395-9.921,17.552-19.077,37.011-19.077 c12.21,0,22.893,4.195,31.669,12.972c9.919,9.92,16.787,25.946,16.025,45.023c-1.145,22.512-5.723,28.616-14.88,39.3 c-8.396,9.538-22.512,14.117-33.96,14.117c-7.247,0-13.734-0.762-19.458-3.814c-5.723-3.052-12.209-8.778-16.407-14.5v16.406 H272.401z M297.199,272.979c0,10.683,4.198,18.314,7.251,23.273c6.104,6.104,8.774,8.014,18.695,9.922 c5.723,1.144,16.023-1.146,21.367-5.724c6.104-4.961,11.063-12.591,12.209-24.037c1.525-17.552-4.959-26.328-9.92-30.906 c-6.869-5.724-15.644-7.25-22.13-6.868c-8.014,0.38-16.788,6.104-20.985,11.064 C299.489,255.427,297.199,262.676,297.199,272.979z"></path> </svg>
